<svg data-name="Ebene 1" id="Ebene_1" viewBox="0 0 154.77 46.6" xmlns="http://www.w3.org/2000/svg">
    <path style="fill:#233564"
        d="M121.73,140.75a.82.82,0,0,1-.8-.46c-2.05-3.4-4.12-5.89-6.19-9.28l-.36-.55c-.29.49-.54.89-.79,1.3-1.91,3.12-3.82,5.35-5.71,8.49a1,1,0,0,1-.89.5H102.8a.56.56,0,0,1-.47-.86l8.89-13.67a1,1,0,0,0,0-1l-8.29-12.78a.57.57,0,0,1,.47-.88h4.21a.75.75,0,0,1,.75.44c1.88,3.1,3.78,5.31,5.67,8.41l.36.55c.14-.2.25-.35.34-.51,1.91-3.12,3.81-5.34,5.71-8.47a.86.86,0,0,1,.74-.42c1.36,0,2.73,0,4.16,0a.63.63,0,0,1,.52,1l-8.25,12.71a.81.81,0,0,0,0,1l8.79,13.6a.58.58,0,0,1-.48.9Z"
        transform="translate(-45.39 -109.32)" />
    <path style="fill:#233564"
        d="M150.8,140.71h-3.54a.69.69,0,0,1-.69-.69v-2.35a2.53,2.53,0,0,0-.31.28,9.29,9.29,0,0,1-9.43,3.16,11.27,11.27,0,0,1-9-10.06,11.79,11.79,0,0,1,3.77-10.22,10.52,10.52,0,0,1,13-1,24.37,24.37,0,0,1,1.95,1.77v-2.48a.45.45,0,0,1,.45-.45l3.8,0c.41,0,.56.09.56.53l0,21.07A.51.51,0,0,1,150.8,140.71Zm-18.25-11a7,7,0,1,0,7-7.1A6.84,6.84,0,0,0,132.55,129.7Z"
        transform="translate(-45.39 -109.32)" />
    <path style="fill:#233564"
        d="M168.35,141.82a13.14,13.14,0,0,1-3.92,5.76,8.51,8.51,0,0,1-5.78,2c-.58,0-.79-.52-.64-1.08l.35-1.29a4.15,4.15,0,0,1,2-2.32,6.83,6.83,0,0,0,2.74-3.09c.94-2,.59-1.26-.87-5.2l-7.54-17.32a.5.5,0,0,1,.45-.71h3.77a1,1,0,0,1,1,.61q3,7.35,6,14.67c.08.2.18.41.33.76.27-.74.49-1.33.7-1.92q2.4-6.8,4.78-13.59c.16-.48.39-.58,1-.52l3.47,0a.57.57,0,0,1,.53.77Z"
        transform="translate(-45.39 -109.32)" />
    <path style="fill:#233564"
        d="M195.89,140.71h3.58a.7.7,0,0,0,.7-.7v-2.89c0-3.61,0-7.22-.06-10.83a8.49,8.49,0,0,0-1.93-5.38,8,8,0,0,0-6.41-2.87,7.71,7.71,0,0,0-6.77,3.07,1.38,1.38,0,0,1-.22.13c0-.76,0-1.46,0-2.15a.47.47,0,0,0-.48-.49c-1.21,0-2.43,0-3.64,0-1,0-.74,0-.77,2.39l0,16.37c0,2.55-.4,3.37,1.21,3.37h2.76a.93.93,0,0,0,.93-.93V129.22a12.72,12.72,0,0,1,.25-2.54,4.78,4.78,0,0,1,4-4,8.19,8.19,0,0,1,2.75,0,4.21,4.21,0,0,1,1.83.78c1.49,1.16,1.71,2.9,1.72,4.57v12.17A.52.52,0,0,0,195.89,140.71Z"
        transform="translate(-45.39 -109.32)" />
    <path style="fill:#524897"
        d="M65.21,109.32H49.87a.65.65,0,0,0-.55,1l7.27,11.77a.65.65,0,0,0,1.09,0l8.06-11.78A.64.64,0,0,0,65.21,109.32Z"
        transform="translate(-45.39 -109.32)" />
    <path style="fill:#e51674"
        d="M53.38,127.71,46.13,116a.4.4,0,0,0-.74.21v22.59a.4.4,0,0,0,.73.23l7.25-10.59A.64.64,0,0,0,53.38,127.71Z"
        transform="translate(-45.39 -109.32)" />
    <path style="fill:#22a186"
        d="M88,109.32H73.82a.93.93,0,0,0-.77.4l-12.32,18a.92.92,0,0,0,0,1l14,22.7a.92.92,0,0,0,1.25.32l13.76-7.94a3.41,3.41,0,0,0,1.7-2.95V112.72A3.4,3.4,0,0,0,88,109.32Z"
        transform="translate(-45.39 -109.32)" />
    <path style="fill:#f29100"
        d="M49.35,145.12l18.38,10.61a1.35,1.35,0,0,0,1.37,0l.81-.47a.41.41,0,0,0,.15-.57L57.2,133.89a.41.41,0,0,0-.68,0l-7.3,10.67A.41.41,0,0,0,49.35,145.12Z"
        transform="translate(-45.39 -109.32)" />
</svg>